<svg width="1320" height="80" viewBox="0 0 1320 80" fill="none" xmlns="http://www.w3.org/2000/svg">
<g clip-path="url(#clip0_1_939)">
<path d="M29.6887 41.6037L38.7582 51.7512C39.0553 52.0835 39.5364 52.0829 39.8331 51.7495C40.1295 51.4161 40.1287 50.876 39.8315 50.5435L31.3019 41L39.8318 31.4565C40.129 31.1239 40.1298 30.5842 39.8334 30.2507C39.6847 30.0836 39.4898 30 39.295 30C39.1007 30 38.9066 30.083 38.7582 30.249L29.6887 40.3963C29.5456 40.556 29.4653 40.7734 29.4653 41C29.4653 41.2265 29.5458 41.4437 29.6887 41.6037Z" fill="#112137"/>
</g>
<path d="M1290.31 40.3963L1281.24 30.2488C1280.94 29.9165 1280.46 29.9171 1280.17 30.2505C1279.87 30.5839 1279.87 31.124 1280.17 31.4565L1288.7 41L1280.17 50.5435C1279.87 50.8761 1279.87 51.4158 1280.17 51.7493C1280.32 51.9164 1280.51 52 1280.7 52C1280.9 52 1281.09 51.917 1281.24 51.751L1290.31 41.6037C1290.45 41.444 1290.53 41.2266 1290.53 41C1290.53 40.7735 1290.45 40.5563 1290.31 40.3963Z" fill="#112137"/>
<defs>
<clipPath id="clip0_1_939">
<rect width="19.6084" height="22" fill="white" transform="translate(44.5645 52) rotate(-180)"/>
</clipPath>
</defs>
</svg>
